<?xml version="1.0" encoding="UTF-8"?>
<svg id="Layer_1" data-name="Layer 1" xmlns="http://www.w3.org/2000/svg" viewBox="0 0 579.56 610.05">
  <defs>
    <style>
      .cls-1 {
        fill: #1f80e5;
      }

      .cls-1, .cls-2, .cls-3, .cls-4 {
        fill-rule: evenodd;
      }

      .cls-2 {
        fill: #57ecfd;
      }

      .cls-3 {
        fill: #3ebafd;
      }

      .cls-4 {
        fill: #59ffff;
      }
    </style>
  </defs>
  <path class="cls-4" d="M61,427.04h15.25v167.75c0,8.39-6.87,15.25-15.25,15.25,33.56,0,61-27.45,61-61v-183.02H61c-33.56,0-61,27.46-61,61.02v183.01H45.75v-167.75c0-8.39,6.86-15.25,15.25-15.25"/>
  <path class="cls-2" d="M152.51,305.02v305.02h45.76V320.27c0-8.38,6.85-15.25,15.24-15.25h15.27v289.77c0,8.39-6.87,15.25-15.25,15.25,33.54,0,61-27.45,61-61V244.02h-61c-33.56,0-61.02,27.45-61.02,61"/>
  <path class="cls-3" d="M305.02,183v427.04h45.75V198.27c0-8.39,6.87-15.25,15.26-15.25h15.25v411.77c0,8.39-6.87,15.25-15.25,15.25,33.54,0,61-27.45,61-61V122h-61c-33.56,0-61.01,27.46-61.01,61"/>
  <path class="cls-1" d="M457.54,61V610.05h45.75V76.25c0-8.39,6.87-15.25,15.26-15.25h15.25V594.79c0,8.39-6.86,15.25-15.25,15.25,33.54,0,61-27.45,61-61V0h-61c-33.56,0-61.02,27.45-61.02,61"/>
</svg>